<?xml version="1.0" encoding="iso-8859-1"?>
<svg version="1.1" id="Capa_1" fill="#fa8a14" xmlns="http://www.w3.org/2000/svg" xmlns:xlink="http://www.w3.org/1999/xlink" x="0px" y="0px"
	 viewBox="0 0 250.02 250.02" style="enable-background:new 0 0 250.02 250.02;" xml:space="preserve">
<path color-rendering="auto" image-rendering="auto" shape-rendering="auto" color-interpolation="sRGB" d="M34.989,0
	c-2.762,0-5,2.239-5,5.001c0,0.827,0.205,1.642,0.598,2.37l69.404,128.891l0.02,108.758c0,2.762,2.239,5,5.001,5
	c0.776,0,1.541-0.181,2.236-0.528l40.002-20c1.693-0.847,2.763-2.577,2.764-4.471l0.018-88.76L219.433,7.371
	c1.309-2.432,0.399-5.464-2.032-6.773C216.671,0.205,215.856,0,215.028,0H34.991H34.989z M43.36,10h163.295l-66.029,122.629
	c-0.392,0.728-0.597,1.542-0.598,2.369l-0.017,86.932l-30.004,15L109.989,135c0-0.828-0.205-1.642-0.598-2.371L43.357,10H43.36z
	 M89.008,60c-2.762,0.001-5,2.24-4.999,5.002c0,0.905,0.246,1.794,0.712,2.57l35.287,58.812V205
	c-0.039,2.761,2.168,5.032,4.929,5.071c2.761,0.039,5.032-2.168,5.071-4.929c0.001-0.047,0.001-0.094,0-0.141v-78.615l35.287-58.812
	c1.42-2.368,0.652-5.44-1.717-6.86c-0.777-0.466-1.665-0.712-2.57-0.712C161.008,60,89.008,60,89.008,60z"/>
<g>
</g>
<g>
</g>
<g>
</g>
<g>
</g>
<g>
</g>
<g>
</g>
<g>
</g>
<g>
</g>
<g>
</g>
<g>
</g>
<g>
</g>
<g>
</g>
<g>
</g>
<g>
</g>
<g>
</g>
</svg>
